<mxfile host="app.diagrams.net" modified="2020-09-24T00:02:38.252Z" agent="5.0 (Windows NT 10.0; Win64; x64) AppleWebKit/537.36 (KHTML, like Gecko) Chrome/85.0.4183.121 Safari/537.36" etag="tEZar2pRf4dOFyTCX4W6" version="13.7.5" type="github">
  <diagram id="iZ13WWzOM42jIiZ31XiR" name="Page-1">
    <mxGraphModel dx="1140" dy="450" grid="1" gridSize="10" guides="1" tooltips="1" connect="1" arrows="1" fold="1" page="1" pageScale="1" pageWidth="827" pageHeight="1169" math="0" shadow="0">
      <root>
        <mxCell id="0" />
        <mxCell id="1" parent="0" />
        <mxCell id="DB1VgfqAPme7LdIuWddD-1" value="Sala" style="shape=umlActor;verticalLabelPosition=bottom;verticalAlign=top;html=1;outlineConnect=0;" vertex="1" parent="1">
          <mxGeometry x="20" y="120" width="40" height="80" as="geometry" />
        </mxCell>
        <mxCell id="DB1VgfqAPme7LdIuWddD-10" value="UC01- Registrar Capacidade&amp;nbsp;" style="ellipse;whiteSpace=wrap;html=1;" vertex="1" parent="1">
          <mxGeometry x="180" y="100" width="140" height="70" as="geometry" />
        </mxCell>
        <mxCell id="DB1VgfqAPme7LdIuWddD-13" value="" style="endArrow=none;html=1;entryX=0;entryY=0.5;entryDx=0;entryDy=0;exitX=1;exitY=0.3333333333333333;exitDx=0;exitDy=0;exitPerimeter=0;" edge="1" parent="1" source="DB1VgfqAPme7LdIuWddD-1" target="DB1VgfqAPme7LdIuWddD-10">
          <mxGeometry width="50" height="50" relative="1" as="geometry">
            <mxPoint x="50" y="170" as="sourcePoint" />
            <mxPoint x="160" y="210" as="targetPoint" />
            <Array as="points">
              <mxPoint x="110" y="190" />
            </Array>
          </mxGeometry>
        </mxCell>
        <mxCell id="DB1VgfqAPme7LdIuWddD-16" value="&lt;span style=&quot;text-align: center&quot;&gt;Sistema de Controle Cinema&lt;/span&gt;" style="shape=note;whiteSpace=wrap;html=1;size=14;verticalAlign=top;align=left;spacingTop=-6;" vertex="1" parent="1">
          <mxGeometry x="10" y="30" width="180" height="30" as="geometry" />
        </mxCell>
        <mxCell id="DB1VgfqAPme7LdIuWddD-17" value="UC02-Registrar Duração" style="ellipse;whiteSpace=wrap;html=1;" vertex="1" parent="1">
          <mxGeometry x="210" y="360" width="140" height="79" as="geometry" />
        </mxCell>
        <mxCell id="DB1VgfqAPme7LdIuWddD-18" value="UC03 - Registrar Titulo" style="ellipse;whiteSpace=wrap;html=1;" vertex="1" parent="1">
          <mxGeometry x="230" y="520" width="140" height="89" as="geometry" />
        </mxCell>
        <mxCell id="DB1VgfqAPme7LdIuWddD-20" value="Cliente" style="shape=umlActor;verticalLabelPosition=bottom;verticalAlign=top;html=1;outlineConnect=0;" vertex="1" parent="1">
          <mxGeometry x="30" y="410" width="40" height="89" as="geometry" />
        </mxCell>
        <mxCell id="DB1VgfqAPme7LdIuWddD-25" value="" style="endArrow=none;html=1;entryX=0.043;entryY=0.684;entryDx=0;entryDy=0;entryPerimeter=0;" edge="1" parent="1" target="DB1VgfqAPme7LdIuWddD-17">
          <mxGeometry width="50" height="50" relative="1" as="geometry">
            <mxPoint x="70" y="440" as="sourcePoint" />
            <mxPoint x="190" y="345" as="targetPoint" />
          </mxGeometry>
        </mxCell>
        <mxCell id="DB1VgfqAPme7LdIuWddD-26" value="" style="endArrow=none;html=1;entryX=0;entryY=0.5;entryDx=0;entryDy=0;exitX=1;exitY=0.3333333333333333;exitDx=0;exitDy=0;exitPerimeter=0;" edge="1" parent="1" source="DB1VgfqAPme7LdIuWddD-20" target="DB1VgfqAPme7LdIuWddD-18">
          <mxGeometry width="50" height="50" relative="1" as="geometry">
            <mxPoint x="80" y="457.5" as="sourcePoint" />
            <mxPoint x="200" y="502.5" as="targetPoint" />
          </mxGeometry>
        </mxCell>
        <mxCell id="DB1VgfqAPme7LdIuWddD-30" value="UC04 - Sessão" style="ellipse;whiteSpace=wrap;html=1;" vertex="1" parent="1">
          <mxGeometry x="450" y="270" width="140" height="70" as="geometry" />
        </mxCell>
        <mxCell id="DB1VgfqAPme7LdIuWddD-38" value="Use" style="endArrow=open;endSize=12;dashed=1;html=1;exitX=0;exitY=0.5;exitDx=0;exitDy=0;" edge="1" parent="1" source="DB1VgfqAPme7LdIuWddD-30">
          <mxGeometry width="160" relative="1" as="geometry">
            <mxPoint x="470" y="240" as="sourcePoint" />
            <mxPoint x="320" y="210" as="targetPoint" />
            <Array as="points">
              <mxPoint x="430" y="230" />
            </Array>
          </mxGeometry>
        </mxCell>
        <mxCell id="DB1VgfqAPme7LdIuWddD-39" value="INCLUDE" style="edgeLabel;html=1;align=center;verticalAlign=middle;resizable=0;points=[];" vertex="1" connectable="0" parent="DB1VgfqAPme7LdIuWddD-38">
          <mxGeometry x="0.1625" y="-1" relative="1" as="geometry">
            <mxPoint as="offset" />
          </mxGeometry>
        </mxCell>
        <mxCell id="DB1VgfqAPme7LdIuWddD-43" value="UC05 - Sala" style="ellipse;whiteSpace=wrap;html=1;" vertex="1" parent="1">
          <mxGeometry x="10" y="281" width="140" height="79" as="geometry" />
        </mxCell>
      </root>
    </mxGraphModel>
  </diagram>
</mxfile>
